<svg width="48" height="48" viewBox="0 0 48 48" fill="none" xmlns="http://www.w3.org/2000/svg">
  <path d="M25.5 40.5V31.5H31.5L24 22.5L16.5 31.5H22.5V40.5H15V40.425C14.748 40.44 14.508 40.5 14.25 40.5C11.2663 40.5 8.40483 39.3147 6.29505 37.205C4.18526 35.0952 3 32.2337 3 29.25C3 23.478 7.365 18.774 12.966 18.129C13.4571 15.5619 14.8274 13.2461 16.8411 11.58C18.8549 9.91391 21.3863 9.0016 24 9C26.614 9.00144 29.1459 9.91363 31.1602 11.5797C33.1745 13.2458 34.5453 15.5616 35.037 18.129C40.638 18.774 44.997 23.478 44.997 29.25C44.997 32.2337 43.8117 35.0952 41.702 37.205C39.5922 39.3147 36.7307 40.5 33.747 40.5C33.495 40.5 33.252 40.44 32.997 40.425V40.5H25.5Z" fill="currentColor"/>
</svg>
