<svg width="20" height="20" viewBox="0 0 20 20" fill="none" xmlns="http://www.w3.org/2000/svg">
  <path d="M8.98028 3.37306C8.73916 3.13419 8.41219 3 8.07126 3C7.73033 3 7.40336 3.13419 7.16225 3.37306L1.37645 9.10685C1.13541 9.34579 1 9.66983 1 10.0077C1 10.3456 1.13541 10.6696 1.37645 10.9085L7.16225 16.6423C7.40474 16.8744 7.72952 17.0029 8.06663 17C8.40375 16.997 8.72623 16.863 8.96461 16.6268C9.203 16.3906 9.33822 16.071 9.34115 15.7369C9.34408 15.4028 9.21448 15.081 8.98028 14.8406L5.49979 11.2819H17.7143C18.0553 11.2819 18.3823 11.1476 18.6234 10.9087C18.8645 10.6697 19 10.3456 19 10.0077C19 9.66976 18.8645 9.34567 18.6234 9.10671C18.3823 8.86776 18.0553 8.73352 17.7143 8.73352H5.49979L8.98028 5.17475C9.22131 4.9358 9.35672 4.61177 9.35672 4.2739C9.35672 3.93604 9.22131 3.612 8.98028 3.37306Z" fill="currentColor"/>
</svg>
