<svg width="20" height="20" viewBox="0 0 20 20" fill="none" xmlns="http://www.w3.org/2000/svg">
  <path d="M11.0197 3.37306C11.2608 3.13419 11.5878 3 11.9287 3C12.2697 3 12.5966 3.13419 12.8378 3.37306L18.6236 9.10685C18.8646 9.34579 19 9.66983 19 10.0077C19 10.3456 18.8646 10.6696 18.6236 10.9085L12.8378 16.6423C12.5953 16.8744 12.2705 17.0029 11.9334 17C11.5963 16.997 11.2738 16.863 11.0354 16.6268C10.797 16.3906 10.6618 16.071 10.6589 15.7369C10.6559 15.4028 10.7855 15.081 11.0197 14.8406L14.5002 11.2819H2.28573C1.94474 11.2819 1.6177 11.1476 1.37658 10.9087C1.13546 10.6697 1 10.3456 1 10.0077C1 9.66976 1.13546 9.34567 1.37658 9.10671C1.6177 8.86776 1.94474 8.73352 2.28573 8.73352H14.5002L11.0197 5.17475C10.7787 4.9358 10.6433 4.61177 10.6433 4.2739C10.6433 3.93604 10.7787 3.612 11.0197 3.37306Z" fill="currentColor"/>
</svg>
